<svg width="51" height="51" viewBox="0 0 51 51" fill="none" xmlns="http://www.w3.org/2000/svg">
<path d="M48.7786 14.994V35.7846C48.7786 39.2307 47.4096 42.5359 44.9726 44.9726C42.5359 47.4096 39.2307 48.7786 35.7846 48.7786H14.994C11.5478 48.7786 8.24273 47.4096 5.80587 44.9726C3.369 42.5359 2 39.2307 2 35.7846V14.994C2 11.5478 3.369 8.24273 5.80587 5.80587C8.24273 3.369 11.5478 2 14.994 2H35.7846C39.2307 2 42.5359 3.369 44.9726 5.80587C47.4096 8.24273 48.7786 11.5478 48.7786 14.994Z" stroke="#121212" stroke-opacity="0.6" stroke-width="1.5" stroke-linecap="round" stroke-linejoin="round"/>
<path d="M13.2732 48C13.1366 47.8711 13.0455 47.5272 13 46.9685C13 46.4097 13.0911 46.1302 13.2732 46.1302C13.6375 46.1302 14.1157 46.0659 14.7077 45.937C15.2997 45.808 15.8461 45.636 16.347 45.4211C16.8935 45.2062 17.1894 45.0129 17.2351 44.8409C17.4626 43.9814 17.6221 43.0788 17.7131 42.1331C17.8498 41.1876 17.918 40.1775 17.918 39.1031V24.2751C17.918 23.9742 17.8042 23.8238 17.5765 23.8238H13.9563C13.8197 23.8238 13.7514 23.6949 13.7514 23.4369C13.7514 23.0501 14.0929 22.5128 14.776 21.8251C15.5046 21.1375 16.3015 20.7936 17.1667 20.7936H17.5765C17.8042 20.7936 17.918 20.6647 17.918 20.4069V19.5688C17.918 17.2909 18.3051 15.1633 19.0793 13.1862C19.8534 11.2092 20.8781 9.44692 22.153 7.89974C23.4737 6.35237 24.9309 5.14902 26.5246 4.28933C28.1641 3.42979 29.8261 3 31.511 3C34.8352 3 36.9982 3.83803 38 5.51432C38 8.22212 37.1805 9.57584 35.541 9.57584C35.0401 9.57584 34.5847 9.38255 34.1749 8.99562C33.7652 8.56596 33.3325 8.0932 32.8771 7.57735C32.4673 7.01859 31.9664 6.54583 31.3744 6.15908C30.8279 5.72924 30.1676 5.51432 29.3936 5.51432C28.073 5.51432 26.9344 6.05162 25.9783 7.12605C25.022 8.20048 24.2934 9.61893 23.7925 11.381C23.3371 13.1433 23.1094 15.0773 23.1094 17.1834V20.4714C23.1094 20.6862 23.2232 20.7936 23.4509 20.7936H31.0328C31.2605 20.7936 31.3744 20.9442 31.3744 21.2449C31.3744 21.9326 31.1012 22.7923 30.5547 23.8238H23.5191C23.2459 23.8238 23.1094 23.9527 23.1094 24.2105V39.1031C23.1094 41.424 23.3143 43.3366 23.7241 44.8409C23.8152 45.0129 24.1111 45.2062 24.612 45.4211C25.1129 45.636 25.6595 45.808 26.2515 45.937C26.8435 46.0659 27.276 46.1302 27.5492 46.1302C27.6859 46.1302 27.7769 46.3883 27.8225 46.9039C27.868 47.4198 27.8453 47.7851 27.7541 48L20.4454 47.6776L13.2732 48Z" fill="#121212" fill-opacity="0.6"/>
</svg>
