<svg width="51" height="51" viewBox="0 0 51 51" fill="none" xmlns="http://www.w3.org/2000/svg">
<path d="M25.1814 41.7112C23.0974 41.7112 21.1398 41.3008 19.3084 40.4799C17.5085 39.6589 15.914 38.5379 14.5247 37.1171C13.1669 35.6961 12.0934 34.0542 11.304 32.1913C10.5461 30.2968 10.1672 28.2917 10.1672 26.1761C10.1672 23.9343 10.5619 21.8345 11.3513 19.8769C12.1407 17.8875 13.2459 16.1509 14.6667 14.6668C16.0877 13.1512 17.7296 11.9672 19.5925 11.1146C21.487 10.262 23.5236 9.83582 25.7024 9.83582C27.9442 9.83582 31.686 10.5463 36.9275 11.9672L37.117 17.8402C37.117 18.3138 36.7854 18.5507 36.1223 18.5507C35.8066 18.5507 35.6013 18.4717 35.5066 18.3138C34.6541 13.988 31.4334 11.825 25.8445 11.825C23.7605 11.825 21.8817 12.4408 20.2083 13.6722C18.5348 14.9037 17.2085 16.5614 16.2297 18.6454C15.2509 20.7293 14.7615 23.0344 14.7615 25.5604C14.7615 27.297 15.0614 29.018 15.6614 30.723C16.2929 32.3965 17.1455 33.9121 18.2189 35.2698C19.3241 36.5961 20.6187 37.6696 22.1028 38.4906C23.6184 39.28 25.2446 39.6747 26.9812 39.6747C29.7914 39.6747 31.8438 39.3274 33.1385 38.6327C33.3594 38.5379 33.47 38.3011 33.47 37.9222L33.4226 34.0384V33.7069C33.4226 31.6861 33.2963 30.3283 33.0437 29.6336C32.9805 29.4127 32.7122 29.239 32.2385 29.1127C31.7649 28.9547 31.2597 28.8284 30.7229 28.7338C30.1861 28.6391 29.7441 28.5917 29.3968 28.5917C29.2705 28.5917 29.2072 28.3865 29.2072 27.9759C29.2072 27.597 29.2705 27.3444 29.3968 27.2181L35.6013 27.455L40.7166 27.2181C40.7797 27.4707 40.8113 27.6917 40.8113 27.8813C40.8113 28.3549 40.7481 28.5917 40.6218 28.5917C40.4955 28.5917 40.2429 28.6391 39.864 28.7338C39.5167 28.8284 39.1378 28.939 38.7273 29.0653C38.3484 29.1916 38.0642 29.3179 37.8748 29.4442C37.559 29.6653 37.4011 30.723 37.4011 32.6175C37.4011 32.9334 37.4011 33.2806 37.4011 33.6595C37.4327 34.0068 37.4643 34.37 37.4959 34.7489L37.5432 36.0277C37.5432 36.6592 37.6537 37.2118 37.8748 37.6854C38.0958 38.159 38.2063 38.4748 38.2063 38.6327C38.2063 38.8853 37.8116 39.1694 37.0222 39.4852C36.517 39.7378 36.0908 39.9115 35.7434 40.0063C35.396 40.1009 35.1593 40.1799 35.033 40.243C34.8751 40.3062 34.5278 40.4325 33.9909 40.6219C33.4542 40.7798 33.0122 40.8904 32.6648 40.9534C31.8123 41.1114 31.0228 41.2534 30.2967 41.3797C29.5704 41.4745 28.8126 41.5534 28.0232 41.6166C27.2338 41.6797 26.2865 41.7112 25.1814 41.7112Z" fill="#121212" fill-opacity="0.6"/>
<path d="M48.6496 14.8651V35.6557C48.6496 39.1018 47.2807 42.407 44.8437 44.8438C42.407 47.2807 39.1018 48.6496 35.6557 48.6496H14.8651C11.4189 48.6496 8.11382 47.2807 5.67696 44.8438C3.2401 42.407 1.87109 39.1018 1.87109 35.6557V14.8651C1.87109 11.4189 3.2401 8.11382 5.67696 5.67696C8.11382 3.2401 11.4189 1.87109 14.8651 1.87109H35.6557C39.1018 1.87109 42.407 3.2401 44.8437 5.67696C47.2807 8.11382 48.6496 11.4189 48.6496 14.8651Z" stroke="#121212" stroke-opacity="0.6" stroke-width="1.5" stroke-linecap="round" stroke-linejoin="round"/>
</svg>
