<svg width="51" height="51" viewBox="0 0 51 51" fill="none" xmlns="http://www.w3.org/2000/svg">
<path d="M48.6496 14.8651V35.6557C48.6496 39.1018 47.2807 42.407 44.8437 44.8437C42.407 47.2807 39.1018 48.6496 35.6557 48.6496H14.8651C11.4189 48.6496 8.11382 47.2807 5.67696 44.8437C3.2401 42.407 1.87109 39.1018 1.87109 35.6557V14.8651C1.87109 11.4189 3.2401 8.11382 5.67696 5.67696C8.11382 3.2401 11.4189 1.87109 14.8651 1.87109H35.6557C39.1018 1.87109 42.407 3.2401 44.8437 5.67696C47.2807 8.11382 48.6496 11.4189 48.6496 14.8651Z" stroke="#121212" stroke-opacity="0.6" stroke-width="1.5" stroke-linecap="round" stroke-linejoin="round"/>
<path d="M25.2603 37.4229C31.9774 37.4229 37.4227 31.9776 37.4227 25.2604C37.4227 18.5433 31.9774 13.098 25.2603 13.098C18.5432 13.098 13.0979 18.5433 13.0979 25.2604C13.0979 31.9776 18.5432 37.4229 25.2603 37.4229Z" stroke="#121212" stroke-opacity="0.6" stroke-width="2"/>
<path d="M44.9074 11.2269C44.9074 13.2937 43.232 14.9692 41.1651 14.9692C39.0983 14.9692 37.4229 13.2937 37.4229 11.2269C37.4229 9.1601 39.0983 7.48462 41.1651 7.48462C43.232 7.48462 44.9074 9.1601 44.9074 11.2269Z" fill="#121212" fill-opacity="0.6"/>
</svg>
