<svg width="51" height="51" viewBox="0 0 51 51" fill="none" xmlns="http://www.w3.org/2000/svg">
<path d="M48.6496 14.8651V35.6557C48.6496 39.1018 47.2807 42.407 44.8437 44.8437C42.407 47.2807 39.1018 48.6496 35.6557 48.6496H14.8651C11.4189 48.6496 8.11382 47.2807 5.67696 44.8437C3.2401 42.407 1.87109 39.1018 1.87109 35.6557V14.8651C1.87109 11.4189 3.2401 8.11382 5.67696 5.67696C8.11382 3.2401 11.4189 1.87109 14.8651 1.87109H35.6557C39.1018 1.87109 42.407 3.2401 44.8437 5.67696C47.2807 8.11382 48.6496 11.4189 48.6496 14.8651Z" stroke="#121212" stroke-opacity="0.6" stroke-width="1.5" stroke-linecap="round" stroke-linejoin="round"/>
<path d="M11.7225 9.35571L9.35547 15.4107V40.1528H17.7793V43.0363L22.5152 44.6267L26.991 40.1528H33.8356L43.0473 30.9393V9.35571H11.7225ZM39.8869 29.3601L34.6234 34.6255H26.1995L21.7256 39.0994V34.6255H14.619V12.5142H39.8869V29.3601ZM34.6252 18.5692V27.7808H31.4668V18.5692H34.6252ZM26.2014 18.5692V27.7808H23.0429V18.5692H26.2014Z" fill="#121212" fill-opacity="0.6"/>
</svg>
