<svg width="51" height="51" viewBox="0 0 51 51" fill="none" xmlns="http://www.w3.org/2000/svg">
<path d="M48.6496 14.8651V35.6557C48.6496 39.1018 47.2807 42.407 44.8437 44.8437C42.407 47.2807 39.1018 48.6496 35.6557 48.6496H14.8651C11.4189 48.6496 8.11382 47.2807 5.67696 44.8437C3.2401 42.407 1.87109 39.1018 1.87109 35.6557V14.8651C1.87109 11.4189 3.2401 8.11382 5.67696 5.67696C8.11382 3.2401 11.4189 1.87109 14.8651 1.87109H35.6557C39.1018 1.87109 42.407 3.2401 44.8437 5.67696C47.2807 8.11382 48.6496 11.4189 48.6496 14.8651Z" stroke="#121212" stroke-opacity="0.6" stroke-width="1.5" stroke-linecap="round" stroke-linejoin="round"/>
<path d="M44.9075 14.7708C43.5303 15.3696 42.0521 15.7812 40.499 15.9608C42.0858 15.0253 43.2983 13.5433 43.8746 11.7807C42.3625 12.6619 40.7127 13.2818 38.9947 13.6144C38.272 12.8569 37.4025 12.2545 36.4392 11.844C35.4762 11.4335 34.4394 11.2235 33.3925 11.2268C29.1524 11.2268 25.717 14.6136 25.717 18.7862C25.717 19.3775 25.7844 19.9538 25.9154 20.5077C22.8742 20.3632 19.8963 19.5865 17.1721 18.227C14.4478 16.8674 12.0368 14.9549 10.093 12.6115C9.41027 13.7607 9.0508 15.0731 9.05264 16.4099C9.05264 19.0295 10.4111 21.3497 12.4693 22.7007C11.251 22.6625 10.0588 22.3382 8.98902 21.7539V21.8474C9.00058 23.6042 9.62071 25.3029 10.7438 26.6538C11.867 28.0048 13.4236 28.9248 15.1488 29.2571C14.0162 29.5565 12.8312 29.6001 11.6797 29.3844C12.1817 30.8957 13.1417 32.2134 14.4266 33.1542C15.7115 34.0952 17.2575 34.6125 18.8499 34.6348C16.1179 36.74 12.7636 37.8775 9.3146 37.8681C8.69712 37.8681 8.08713 37.8307 7.48462 37.7633C11.0041 39.9911 15.0851 41.1709 19.2504 41.1651C33.3737 41.1651 41.0941 29.6463 41.0941 19.6544L41.0679 18.674C42.5734 17.616 43.8744 16.2935 44.9075 14.7708Z" fill="#121212" fill-opacity="0.6"/>
</svg>
