<svg width="51" height="52" viewBox="0 0 51 52" fill="none" xmlns="http://www.w3.org/2000/svg">
<path d="M48.6496 15.386V36.1766C48.6496 39.6226 47.2807 42.9278 44.8437 45.3646C42.407 47.8016 39.1018 49.1705 35.6557 49.1705H14.8651C11.4189 49.1705 8.11382 47.8016 5.67696 45.3646C3.2401 42.9278 1.87109 39.6226 1.87109 36.1766V15.386C1.87109 11.9398 3.2401 8.6347 5.67696 6.19783C8.11382 3.76097 11.4189 2.39197 14.8651 2.39197H35.6557C39.1018 2.39197 42.407 3.76097 44.8437 6.19783C47.2807 8.6347 48.6496 11.9398 48.6496 15.386Z" stroke="#121212" stroke-opacity="0.6" stroke-width="1.5" stroke-linecap="round" stroke-linejoin="round"/>
<path d="M39.2939 25.7813C39.2948 26.1967 39.1912 26.6052 38.993 26.9672C38.7947 27.3293 38.5088 27.6324 38.1628 27.8472L16.7177 41.3258C16.3562 41.5533 15.9421 41.6776 15.5182 41.6856C15.0943 41.6937 14.676 41.5853 14.3065 41.3718C13.9405 41.1615 13.6356 40.8548 13.4232 40.4834C13.2108 40.112 13.0985 39.6891 13.0979 39.2584V12.3042C13.0985 11.8734 13.2108 11.4506 13.4232 11.0791C13.6356 10.7077 13.9405 10.4011 14.3065 10.1909C14.676 9.9773 15.0943 9.86894 15.5182 9.87701C15.9421 9.88507 16.3562 10.0093 16.7177 10.2367L38.1628 23.7154C38.5088 23.9302 38.7947 24.2333 38.993 24.5954C39.1912 24.9574 39.2948 25.3659 39.2939 25.7813Z" fill="#121212" fill-opacity="0.6"/>
</svg>
